<svg width="512" height="512" xmlns="http://www.w3.org/2000/svg">

 <g>
  <title>background</title>
  <rect fill="none" id="canvas_background" height="402" width="582" y="-1" x="-1"/>
 </g>
 <g>
  <title>Layer 1</title>
  <path id="svg_3" fill="#ffffff" d="m494.604,107.636c-17.746,7.809 -36.66,12.984 -56.371,15.492c20.283,-12.14 35.76,-31.224 43.035,-54.22c-18.91,11.306 -39.783,19.293 -62.033,23.747c-17.959,-19.174 -43.547,-31.045 -71.461,-31.045c-54.166,0 -97.768,44.085 -97.768,98.126c0,7.776 0.656,15.248 2.268,22.372c-81.336,-3.982 -153.304,-43.065 -201.651,-102.611c-8.443,14.68 -13.393,31.491 -13.393,49.583c0,33.973 17.447,64.09 43.458,81.521c-15.718,-0.294 -31.14,-4.868 -44.203,-12.073l0,1.074c0,47.667 33.914,87.262 78.379,96.381c-7.964,2.188 -16.64,3.232 -25.649,3.232c-6.258,0 -12.586,-0.361 -18.521,-1.674c12.68,38.85 48.647,67.41 91.416,68.334c-33.286,26.108 -75.549,41.838 -121.299,41.838c-8.021,0 -15.717,-0.353 -23.414,-1.342c43.336,28.021 94.697,44.02 150.085,44.02c180.02,0 278.448,-149.53 278.448,-279.14c0,-4.338 -0.156,-8.527 -0.361,-12.681c19.419,-13.818 35.732,-31.072 49.035,-50.934l0,0zm0,0"/>
 </g>
</svg>